solid OpenSCAD_Model
  facet normal -1 0 0
    outer loop
      vertex 0 0 0
      vertex 0 0 3
      vertex 0 20 0
    endloop
  endfacet
  facet normal -1 0 0
    outer loop
      vertex 0 20 0
      vertex 0 0 3
      vertex 0 20 3
    endloop
  endfacet
  facet normal 0 -1 0
    outer loop
      vertex 0 0 3
      vertex 0 0 0
      vertex 5 0 0
    endloop
  endfacet
  facet normal 0 -1 0
    outer loop
      vertex 5 0 3
      vertex 0 0 3
      vertex 5 0 0
    endloop
  endfacet
  facet normal 0 0 -1
    outer loop
      vertex 0 0 0
      vertex 0 20 0
      vertex 5 0 0
    endloop
  endfacet
  facet normal 0 0 -1
    outer loop
      vertex 15 10 0
      vertex 0 20 0
      vertex 120 20 0
    endloop
  endfacet
  facet normal 0 0 -1
    outer loop
      vertex 115 0 0
      vertex 120 20 0
      vertex 120 0 0
    endloop
  endfacet
  facet normal 0 0 -1
    outer loop
      vertex 115 10 0
      vertex 120 20 0
      vertex 115 0 0
    endloop
  endfacet
  facet normal 0 0 -1
    outer loop
      vertex 105 10 0
      vertex 120 20 0
      vertex 115 10 0
    endloop
  endfacet
  facet normal 0 0 -1
    outer loop
      vertex 15 10 0
      vertex 120 20 0
      vertex 105 10 0
    endloop
  endfacet
  facet normal 0 0 -1
    outer loop
      vertex 15 10 0
      vertex 105 10 0
      vertex 15 0 0
    endloop
  endfacet
  facet normal 0 0 -1
    outer loop
      vertex 5 10 0
      vertex 0 20 0
      vertex 15 10 0
    endloop
  endfacet
  facet normal 0 0 -1
    outer loop
      vertex 5 0 0
      vertex 0 20 0
      vertex 5 10 0
    endloop
  endfacet
  facet normal 0 0 -1
    outer loop
      vertex 105 0 0
      vertex 15 0 0
      vertex 105 10 0
    endloop
  endfacet
  facet normal 0 1 0
    outer loop
      vertex 0 20 0
      vertex 0 20 3
      vertex 120 20 0
    endloop
  endfacet
  facet normal 0 1 0
    outer loop
      vertex 120 20 0
      vertex 0 20 3
      vertex 120 20 3
    endloop
  endfacet
  facet normal 0 0 1
    outer loop
      vertex 0 20 3
      vertex 0 0 3
      vertex 5 0 3
    endloop
  endfacet
  facet normal 0 0 1
    outer loop
      vertex 15 10 3
      vertex 0 20 3
      vertex 5 10 3
    endloop
  endfacet
  facet normal 0 0 1
    outer loop
      vertex 5 10 3
      vertex 0 20 3
      vertex 5 0 3
    endloop
  endfacet
  facet normal 0 0 1
    outer loop
      vertex 105 0 3
      vertex 0 20 3
      vertex 15 10 3
    endloop
  endfacet
  facet normal 0 0 1
    outer loop
      vertex 105 0 3
      vertex 15 10 3
      vertex 15 0 3
    endloop
  endfacet
  facet normal 0 0 1
    outer loop
      vertex 105 10 3
      vertex 0 20 3
      vertex 105 0 3
    endloop
  endfacet
  facet normal 0 0 1
    outer loop
      vertex 115 10 3
      vertex 0 20 3
      vertex 105 10 3
    endloop
  endfacet
  facet normal 0 0 1
    outer loop
      vertex 120 20 3
      vertex 0 20 3
      vertex 115 10 3
    endloop
  endfacet
  facet normal 0 0 1
    outer loop
      vertex 120 0 3
      vertex 115 10 3
      vertex 115 0 3
    endloop
  endfacet
  facet normal 0 0 1
    outer loop
      vertex 120 20 3
      vertex 115 10 3
      vertex 120 0 3
    endloop
  endfacet
  facet normal 1 0 0
    outer loop
      vertex 5 10 0
      vertex 5 10 3
      vertex 5 0 3
    endloop
  endfacet
  facet normal 1 0 0
    outer loop
      vertex 5 0 0
      vertex 5 10 0
      vertex 5 0 3
    endloop
  endfacet
  facet normal 0 -1 0
    outer loop
      vertex 15 10 0
      vertex 15 10 3
      vertex 5 10 3
    endloop
  endfacet
  facet normal 0 -1 0
    outer loop
      vertex 5 10 0
      vertex 15 10 0
      vertex 5 10 3
    endloop
  endfacet
  facet normal -1 0 0
    outer loop
      vertex 15 10 3
      vertex 15 10 0
      vertex 15 0 3
    endloop
  endfacet
  facet normal -1 0 0
    outer loop
      vertex 15 0 3
      vertex 15 10 0
      vertex 15 0 0
    endloop
  endfacet
  facet normal 0 -1 0
    outer loop
      vertex 15 0 3
      vertex 15 0 0
      vertex 105 0 0
    endloop
  endfacet
  facet normal 0 -1 0
    outer loop
      vertex 105 0 3
      vertex 15 0 3
      vertex 105 0 0
    endloop
  endfacet
  facet normal 1 0 0
    outer loop
      vertex 105 10 0
      vertex 105 10 3
      vertex 105 0 3
    endloop
  endfacet
  facet normal 1 0 0
    outer loop
      vertex 105 0 0
      vertex 105 10 0
      vertex 105 0 3
    endloop
  endfacet
  facet normal 0 -1 0
    outer loop
      vertex 115 10 0
      vertex 115 10 3
      vertex 105 10 3
    endloop
  endfacet
  facet normal 0 -1 0
    outer loop
      vertex 105 10 0
      vertex 115 10 0
      vertex 105 10 3
    endloop
  endfacet
  facet normal -1 0 0
    outer loop
      vertex 115 10 3
      vertex 115 10 0
      vertex 115 0 3
    endloop
  endfacet
  facet normal -1 0 0
    outer loop
      vertex 115 0 3
      vertex 115 10 0
      vertex 115 0 0
    endloop
  endfacet
  facet normal 0 -1 0
    outer loop
      vertex 115 0 3
      vertex 115 0 0
      vertex 120 0 0
    endloop
  endfacet
  facet normal 0 -1 0
    outer loop
      vertex 120 0 3
      vertex 115 0 3
      vertex 120 0 0
    endloop
  endfacet
  facet normal 1 0 0
    outer loop
      vertex 120 0 3
      vertex 120 0 0
      vertex 120 20 0
    endloop
  endfacet
  facet normal 1 0 0
    outer loop
      vertex 120 20 3
      vertex 120 0 3
      vertex 120 20 0
    endloop
  endfacet
endsolid OpenSCAD_Model
