solid OpenSCAD_Model
  facet normal -1 0 0
    outer loop
      vertex -10 5 0
      vertex -10 5 3
      vertex -10 15 0
    endloop
  endfacet
  facet normal -1 0 0
    outer loop
      vertex -10 15 0
      vertex -10 5 3
      vertex -10 15 3
    endloop
  endfacet
  facet normal 0 -1 0
    outer loop
      vertex -10 5 3
      vertex -10 5 0
      vertex 0 5 0
    endloop
  endfacet
  facet normal 0 -1 0
    outer loop
      vertex 0 5 3
      vertex -10 5 3
      vertex 0 5 0
    endloop
  endfacet
  facet normal 0 0 -1
    outer loop
      vertex -10 5 0
      vertex -10 15 0
      vertex 0 5 0
    endloop
  endfacet
  facet normal 0 0 -1
    outer loop
      vertex 0 5 0
      vertex -10 15 0
      vertex 0 15 0
    endloop
  endfacet
  facet normal 0 0 -1
    outer loop
      vertex 0 15 0
      vertex 0 20 0
      vertex 120 20 0
    endloop
  endfacet
  facet normal 0 0 -1
    outer loop
      vertex 0 15 0
      vertex 120 20 0
      vertex 0 5 0
    endloop
  endfacet
  facet normal 0 0 -1
    outer loop
      vertex 0 5 0
      vertex 120 20 0
      vertex 120 15 0
    endloop
  endfacet
  facet normal 0 0 -1
    outer loop
      vertex 0 5 0
      vertex 120 15 0
      vertex 130 15 0
    endloop
  endfacet
  facet normal 0 0 -1
    outer loop
      vertex 120 5 0
      vertex 130 15 0
      vertex 130 5 0
    endloop
  endfacet
  facet normal 0 0 -1
    outer loop
      vertex 0 5 0
      vertex 130 15 0
      vertex 120 5 0
    endloop
  endfacet
  facet normal 0 0 -1
    outer loop
      vertex 120 5 0
      vertex 120 0 0
      vertex 0 5 0
    endloop
  endfacet
  facet normal 0 0 -1
    outer loop
      vertex 0 5 0
      vertex 120 0 0
      vertex 0 0 0
    endloop
  endfacet
  facet normal 0 1 0
    outer loop
      vertex -10 15 0
      vertex -10 15 3
      vertex 0 15 0
    endloop
  endfacet
  facet normal 0 1 0
    outer loop
      vertex 0 15 0
      vertex -10 15 3
      vertex 0 15 3
    endloop
  endfacet
  facet normal 0 0 1
    outer loop
      vertex 120 5 3
      vertex 130 5 3
      vertex -10 15 3
    endloop
  endfacet
  facet normal 0 0 1
    outer loop
      vertex -10 15 3
      vertex -10 5 3
      vertex 0 5 3
    endloop
  endfacet
  facet normal 0 0 1
    outer loop
      vertex 120 0 3
      vertex -10 15 3
      vertex 0 5 3
    endloop
  endfacet
  facet normal 0 0 1
    outer loop
      vertex 0 0 3
      vertex 120 0 3
      vertex 0 5 3
    endloop
  endfacet
  facet normal 0 0 1
    outer loop
      vertex 120 0 3
      vertex 120 5 3
      vertex -10 15 3
    endloop
  endfacet
  facet normal 0 0 1
    outer loop
      vertex 130 5 3
      vertex 120 15 3
      vertex 0 15 3
    endloop
  endfacet
  facet normal 0 0 1
    outer loop
      vertex 130 5 3
      vertex 130 15 3
      vertex 120 15 3
    endloop
  endfacet
  facet normal 0 0 1
    outer loop
      vertex 130 5 3
      vertex 0 15 3
      vertex -10 15 3
    endloop
  endfacet
  facet normal 0 0 1
    outer loop
      vertex 120 15 3
      vertex 120 20 3
      vertex 0 15 3
    endloop
  endfacet
  facet normal 0 0 1
    outer loop
      vertex 0 20 3
      vertex 0 15 3
      vertex 120 20 3
    endloop
  endfacet
  facet normal -1 0 0
    outer loop
      vertex 0 0 0
      vertex 0 0 3
      vertex 0 5 0
    endloop
  endfacet
  facet normal -1 0 0
    outer loop
      vertex 0 5 0
      vertex 0 0 3
      vertex 0 5 3
    endloop
  endfacet
  facet normal 0 -1 0
    outer loop
      vertex 0 0 3
      vertex 0 0 0
      vertex 120 0 0
    endloop
  endfacet
  facet normal 0 -1 0
    outer loop
      vertex 120 0 3
      vertex 0 0 3
      vertex 120 0 0
    endloop
  endfacet
  facet normal 1 0 0
    outer loop
      vertex 120 0 3
      vertex 120 0 0
      vertex 120 5 0
    endloop
  endfacet
  facet normal 1 0 0
    outer loop
      vertex 120 5 3
      vertex 120 0 3
      vertex 120 5 0
    endloop
  endfacet
  facet normal 0 -1 0
    outer loop
      vertex 120 5 3
      vertex 120 5 0
      vertex 130 5 0
    endloop
  endfacet
  facet normal 0 -1 0
    outer loop
      vertex 130 5 3
      vertex 120 5 3
      vertex 130 5 0
    endloop
  endfacet
  facet normal 1 0 0
    outer loop
      vertex 130 5 3
      vertex 130 5 0
      vertex 130 15 0
    endloop
  endfacet
  facet normal 1 0 0
    outer loop
      vertex 130 15 3
      vertex 130 5 3
      vertex 130 15 0
    endloop
  endfacet
  facet normal 0 1 0
    outer loop
      vertex 120 15 0
      vertex 120 15 3
      vertex 130 15 0
    endloop
  endfacet
  facet normal 0 1 0
    outer loop
      vertex 130 15 0
      vertex 120 15 3
      vertex 130 15 3
    endloop
  endfacet
  facet normal 1 0 0
    outer loop
      vertex 120 15 3
      vertex 120 15 0
      vertex 120 20 0
    endloop
  endfacet
  facet normal 1 0 0
    outer loop
      vertex 120 20 3
      vertex 120 15 3
      vertex 120 20 0
    endloop
  endfacet
  facet normal 0 1 0
    outer loop
      vertex 0 20 0
      vertex 0 20 3
      vertex 120 20 0
    endloop
  endfacet
  facet normal 0 1 0
    outer loop
      vertex 120 20 0
      vertex 0 20 3
      vertex 120 20 3
    endloop
  endfacet
  facet normal -1 0 0
    outer loop
      vertex 0 15 0
      vertex 0 15 3
      vertex 0 20 0
    endloop
  endfacet
  facet normal -1 0 0
    outer loop
      vertex 0 20 0
      vertex 0 15 3
      vertex 0 20 3
    endloop
  endfacet
endsolid OpenSCAD_Model
