solid OpenSCAD_Model
  facet normal -0.999391 0 -0.0348995
    outer loop
      vertex -11.0758 0 30.6321
      vertex -11.0705 0.765367 30.48
      vertex -11.0705 -0.765367 30.48
    endloop
  endfacet
  facet normal -0.999391 0 -0.0348995
    outer loop
      vertex -11.0705 -0.765367 30.48
      vertex -11.0705 0.765367 30.48
      vertex -11.0553 1.41421 30.0467
    endloop
  endfacet
  facet normal -0.999391 0 -0.0348995
    outer loop
      vertex -11.0705 -0.765367 30.48
      vertex -11.0553 1.41421 30.0467
      vertex -11.0327 1.84776 29.3982
    endloop
  endfacet
  facet normal -0.999391 0 -0.0348995
    outer loop
      vertex -11.0705 -0.765367 30.48
      vertex -11.0327 1.84776 29.3982
      vertex -11.006 2 28.6333
    endloop
  endfacet
  facet normal -0.999391 0 -0.0348995
    outer loop
      vertex -11.0705 -0.765367 30.48
      vertex -11.006 2 28.6333
      vertex -10.9793 1.84776 27.8684
    endloop
  endfacet
  facet normal -0.999391 0 -0.0348995
    outer loop
      vertex -11.0705 -0.765367 30.48
      vertex -10.9793 1.84776 27.8684
      vertex -10.9566 1.41421 27.22
    endloop
  endfacet
  facet normal -0.999391 0 -0.0348995
    outer loop
      vertex -11.0705 -0.765367 30.48
      vertex -10.9566 1.41421 27.22
      vertex -10.9415 0.765367 26.7867
    endloop
  endfacet
  facet normal -0.999391 0 -0.0348995
    outer loop
      vertex -11.0705 -0.765367 30.48
      vertex -10.9415 0.765367 26.7867
      vertex -10.9362 0 26.6346
    endloop
  endfacet
  facet normal -0.999391 0 -0.0348995
    outer loop
      vertex -11.0705 -0.765367 30.48
      vertex -10.9362 0 26.6346
      vertex -10.9415 -0.765367 26.7867
    endloop
  endfacet
  facet normal -0.999391 0 -0.0348995
    outer loop
      vertex -11.0705 -0.765367 30.48
      vertex -10.9415 -0.765367 26.7867
      vertex -10.9566 -1.41421 27.22
    endloop
  endfacet
  facet normal -0.999391 0 -0.0348995
    outer loop
      vertex -11.0705 -0.765367 30.48
      vertex -10.9566 -1.41421 27.22
      vertex -10.9793 -1.84776 27.8684
    endloop
  endfacet
  facet normal -0.999391 0 -0.0348995
    outer loop
      vertex -11.0705 -0.765367 30.48
      vertex -10.9793 -1.84776 27.8684
      vertex -11.006 -2 28.6333
    endloop
  endfacet
  facet normal -0.999391 0 -0.0348995
    outer loop
      vertex -11.0705 -0.765367 30.48
      vertex -11.006 -2 28.6333
      vertex -11.0327 -1.84776 29.3982
    endloop
  endfacet
  facet normal -0.999391 0 -0.0348995
    outer loop
      vertex -11.0705 -0.765367 30.48
      vertex -11.0327 -1.84776 29.3982
      vertex -11.0553 -1.41421 30.0467
    endloop
  endfacet
  facet normal -0.314936 0.187157 0.930477
    outer loop
      vertex -11.0705 0.765367 30.48
      vertex -11.0758 0 30.6321
      vertex -4.28044 1.31304 32.668
    endloop
  endfacet
  facet normal -0.314936 0.187157 0.930477
    outer loop
      vertex -4.166 1.56627 32.6558
      vertex -11.0705 0.765367 30.48
      vertex -4.28044 1.31304 32.668
    endloop
  endfacet
  facet normal -0.314936 0.187157 0.930477
    outer loop
      vertex -4.34387 0.94663 32.7202
      vertex -11.0758 0 30.6321
      vertex -4.46644 0 32.8692
    endloop
  endfacet
  facet normal -0.314936 0.187157 0.930477
    outer loop
      vertex -4.30285 1.26343 32.6704
      vertex -11.0758 0 30.6321
      vertex -4.34387 0.94663 32.7202
    endloop
  endfacet
  facet normal -0.314936 0.187157 0.930477
    outer loop
      vertex -4.28044 1.31304 32.668
      vertex -11.0758 0 30.6321
      vertex -4.30285 1.26343 32.6704
    endloop
  endfacet
  facet normal -0.314935 -0.187157 0.930477
    outer loop
      vertex -4.46644 0 32.8692
      vertex -11.0758 0 30.6321
      vertex -11.0705 -0.765367 30.48
    endloop
  endfacet
  facet normal -0.314935 -0.187157 0.930477
    outer loop
      vertex -4.43388 -0.251457 32.8296
      vertex -4.46644 0 32.8692
      vertex -11.0705 -0.765367 30.48
    endloop
  endfacet
  facet normal -0.314936 -0.187157 0.930477
    outer loop
      vertex -4.17006 -1.55727 32.6562
      vertex -11.0705 -0.765367 30.48
      vertex -4.166 -1.56627 32.6558
    endloop
  endfacet
  facet normal -0.314936 -0.187157 0.930477
    outer loop
      vertex -4.30285 -1.26343 32.6704
      vertex -11.0705 -0.765367 30.48
      vertex -4.17006 -1.55727 32.6562
    endloop
  endfacet
  facet normal -0.314936 -0.187157 0.930477
    outer loop
      vertex -4.42636 -0.309536 32.8205
      vertex -11.0705 -0.765367 30.48
      vertex -4.30285 -1.26343 32.6704
    endloop
  endfacet
  facet normal -0.314936 -0.187157 0.930477
    outer loop
      vertex -4.43388 -0.251457 32.8296
      vertex -11.0705 -0.765367 30.48
      vertex -4.42636 -0.309536 32.8205
    endloop
  endfacet
  facet normal -0.309936 -0.532977 0.787321
    outer loop
      vertex -4.166 -1.56627 32.6558
      vertex -11.0705 -0.765367 30.48
      vertex -11.0553 -1.41421 30.0467
    endloop
  endfacet
  facet normal -0.309936 -0.532977 0.787321
    outer loop
      vertex -4.08487 -1.76634 32.5523
      vertex -4.166 -1.56627 32.6558
      vertex -11.0553 -1.41421 30.0467
    endloop
  endfacet
  facet normal -0.309936 -0.532978 0.787321
    outer loop
      vertex -3.58283 -2.72143 32.1034
      vertex -11.0553 -1.41421 30.0467
      vertex -3.29178 -3.07442 31.979
    endloop
  endfacet
  facet normal -0.309936 -0.532978 0.787321
    outer loop
      vertex -3.80859 -2.44763 32.1999
      vertex -11.0553 -1.41421 30.0467
      vertex -3.58283 -2.72143 32.1034
    endloop
  endfacet
  facet normal -0.309936 -0.532978 0.787321
    outer loop
      vertex -4.08487 -1.76634 32.5523
      vertex -11.0553 -1.41421 30.0467
      vertex -3.80859 -2.44763 32.1999
    endloop
  endfacet
  facet normal -0.300699 -0.797658 0.522802
    outer loop
      vertex -3.29178 -3.07442 31.979
      vertex -11.0553 -1.41421 30.0467
      vertex -11.0327 -1.84776 29.3982
    endloop
  endfacet
  facet normal -0.300699 -0.797658 0.522802
    outer loop
      vertex -3.21327 -3.18121 31.8612
      vertex -3.29178 -3.07442 31.979
      vertex -11.0327 -1.84776 29.3982
    endloop
  endfacet
  facet normal -0.300699 -0.797658 0.522802
    outer loop
      vertex -1.5222 -4.32807 31.0841
      vertex -11.0327 -1.84776 29.3982
      vertex -1.07886 -4.6194 30.8946
    endloop
  endfacet
  facet normal -0.300699 -0.797658 0.522802
    outer loop
      vertex -1.9251 -4.21538 31.0243
      vertex -11.0327 -1.84776 29.3982
      vertex -1.5222 -4.32807 31.0841
    endloop
  endfacet
  facet normal -0.300699 -0.797658 0.522802
    outer loop
      vertex -2.67723 -3.69303 31.3886
      vertex -11.0327 -1.84776 29.3982
      vertex -1.9251 -4.21538 31.0243
    endloop
  endfacet
  facet normal -0.300699 -0.797658 0.522802
    outer loop
      vertex -3.00362 -3.46637 31.5467
      vertex -11.0327 -1.84776 29.3982
      vertex -2.67723 -3.69303 31.3886
    endloop
  endfacet
  facet normal -0.300699 -0.797658 0.522802
    outer loop
      vertex -3.21327 -3.18121 31.8612
      vertex -11.0327 -1.84776 29.3982
      vertex -3.00362 -3.46637 31.5467
    endloop
  endfacet
  facet normal -0.300699 -0.797658 0.522802
    outer loop
      vertex -1.08773 -4.44959 31.1486
      vertex -1.5222 -4.32807 31.0841
      vertex -1.07886 -4.6194 30.8946
    endloop
  endfacet
  facet normal -0.28863 -0.940901 0.177192
    outer loop
      vertex -1.07886 -4.6194 30.8946
      vertex -11.0327 -1.84776 29.3982
      vertex -11.006 -2 28.6333
    endloop
  endfacet
  facet normal -0.28863 -0.940902 0.177192
    outer loop
      vertex -1.07886 -4.6194 30.8946
      vertex -11.006 -2 28.6333
      vertex -1.01209 -5 28.9823
    endloop
  endfacet
  facet normal -0.275567 -0.940902 -0.196894
    outer loop
      vertex -1.01209 -5 28.9823
      vertex -11.006 -2 28.6333
      vertex -10.9793 -1.84776 27.8684
    endloop
  endfacet
  facet normal -0.275567 -0.940902 -0.196894
    outer loop
      vertex -2.04281 -4.47314 27.9072
      vertex -10.9793 -1.84776 27.8684
      vertex -2.67518 -4.14156 27.2077
    endloop
  endfacet
  facet normal -0.275567 -0.940902 -0.196894
    outer loop
      vertex -1.01209 -5 28.9823
      vertex -10.9793 -1.84776 27.8684
      vertex -2.04281 -4.47314 27.9072
    endloop
  endfacet
  facet normal -0.275567 -0.940902 -0.196894
    outer loop
      vertex -0.974633 -4.78654 27.9098
      vertex -1.01209 -5 28.9823
      vertex -1.45816 -4.64467 27.9086
    endloop
  endfacet
  facet normal -0.275567 -0.940902 -0.196894
    outer loop
      vertex -2.04281 -4.47314 27.9072
      vertex -1.45816 -4.64467 27.9086
      vertex -1.01209 -5 28.9823
    endloop
  endfacet
  facet normal -0.263498 -0.797658 -0.542504
    outer loop
      vertex -2.67518 -4.14156 27.2077
      vertex -10.9793 -1.84776 27.8684
      vertex -10.9566 -1.41421 27.22
    endloop
  endfacet
  facet normal -0.263498 -0.797658 -0.542504
    outer loop
      vertex -2.71392 -4.11831 27.1923
      vertex -2.67518 -4.14156 27.2077
      vertex -2.94652 -3.9787 27.1
    endloop
  endfacet
  facet normal -0.263498 -0.797658 -0.542504
    outer loop
      vertex -2.94652 -3.9787 27.1
      vertex -2.67518 -4.14156 27.2077
      vertex -10.9566 -1.41421 27.22
    endloop
  endfacet
  facet normal -0.263498 -0.797658 -0.542504
    outer loop
      vertex -3.79167 -3.25727 26.4498
      vertex -10.9566 -1.41421 27.22
      vertex -4.20588 -2.8366 26.0325
    endloop
  endfacet
  facet normal -0.263498 -0.797658 -0.542504
    outer loop
      vertex -3.27613 -3.78086 26.9693
      vertex -10.9566 -1.41421 27.22
      vertex -3.79167 -3.25727 26.4498
    endloop
  endfacet
  facet normal -0.263498 -0.797658 -0.542504
    outer loop
      vertex -2.94652 -3.9787 27.1
      vertex -10.9566 -1.41421 27.22
      vertex -3.27613 -3.78086 26.9693
    endloop
  endfacet
  facet normal -0.254261 -0.532977 -0.807023
    outer loop
      vertex -10.9566 -1.41421 27.22
      vertex -10.9415 -0.765367 26.7867
      vertex -4.20588 -2.8366 26.0325
    endloop
  endfacet
  facet normal -0.254261 -0.532977 -0.807023
    outer loop
      vertex -4.28267 -2.7523 26.001
      vertex -10.9415 -0.765367 26.7867
      vertex -4.3721 -2.57564 25.9125
    endloop
  endfacet
  facet normal -0.254261 -0.532977 -0.807023
    outer loop
      vertex -4.20588 -2.8366 26.0325
      vertex -10.9415 -0.765367 26.7867
      vertex -4.28267 -2.7523 26.001
    endloop
  endfacet
  facet normal -0.254261 -0.532978 -0.807023
    outer loop
      vertex -10.9415 -0.765367 26.7867
      vertex -4.94206 -1.44795 25.3473
      vertex -4.94147 -1.45095 25.3491
    endloop
  endfacet
  facet normal -0.254261 -0.532978 -0.807023
    outer loop
      vertex -10.9415 -0.765367 26.7867
      vertex -4.94147 -1.45095 25.3491
      vertex -4.60338 -2.11879 25.6836
    endloop
  endfacet
  facet normal -0.254261 -0.532978 -0.807023
    outer loop
      vertex -10.9415 -0.765367 26.7867
      vertex -4.60338 -2.11879 25.6836
      vertex -4.3721 -2.57564 25.9125
    endloop
  endfacet
  facet normal -0.249262 -0.187157 -0.950179
    outer loop
      vertex -10.9415 -0.765367 26.7867
      vertex -10.9362 0 26.6346
      vertex -4.94206 -1.44795 25.3473
    endloop
  endfacet
  facet normal -0.249262 -0.187157 -0.950179
    outer loop
      vertex -4.94206 -1.44795 25.3473
      vertex -10.9362 0 26.6346
      vertex -4.99265 -1.12763 25.2975
    endloop
  endfacet
  facet normal -0.249262 -0.187157 -0.950179
    outer loop
      vertex -10.9362 0 26.6346
      vertex -5.0503 -0.762514 25.2407
      vertex -4.99265 -1.12763 25.2975
    endloop
  endfacet
  facet normal -0.249262 -0.187157 -0.950179
    outer loop
      vertex -10.9362 0 26.6346
      vertex -5.17072 0 25.1221
      vertex -5.0503 -0.762514 25.2407
    endloop
  endfacet
  facet normal -0.249262 0.187157 -0.950179
    outer loop
      vertex -10.9415 0.765367 26.7867
      vertex -5.1195 0.324353 25.1725
      vertex -10.9362 0 26.6346
    endloop
  endfacet
  facet normal -0.249262 0.187157 -0.950179
    outer loop
      vertex -10.9362 0 26.6346
      vertex -5.1195 0.324353 25.1725
      vertex -5.17072 0 25.1221
    endloop
  endfacet
  facet normal -0.249262 0.187157 -0.950179
    outer loop
      vertex -10.9415 0.765367 26.7867
      vertex -4.94206 1.44795 25.3473
      vertex -5.1195 0.324353 25.1725
    endloop
  endfacet
  facet normal -0.249262 0.187157 -0.950179
    outer loop
      vertex -5.1195 0.324353 25.1725
      vertex -4.94206 1.44795 25.3473
      vertex -5.06162 0.690827 25.2295
    endloop
  endfacet
  facet normal -0.254261 0.532977 -0.807023
    outer loop
      vertex -10.9566 1.41421 27.22
      vertex -4.80626 1.71803 25.4829
      vertex -10.9415 0.765367 26.7867
    endloop
  endfacet
  facet normal -0.254261 0.532977 -0.807023
    outer loop
      vertex -10.9415 0.765367 26.7867
      vertex -4.80626 1.71803 25.4829
      vertex -4.94147 1.45095 25.3491
    endloop
  endfacet
  facet normal -0.254261 0.532977 -0.807023
    outer loop
      vertex -10.9415 0.765367 26.7867
      vertex -4.94147 1.45095 25.3491
      vertex -4.94206 1.44795 25.3473
    endloop
  endfacet
  facet normal -0.254261 0.532978 -0.807023
    outer loop
      vertex -10.9566 1.41421 27.22
      vertex -4.28267 2.7523 26.001
      vertex -4.80626 1.71803 25.4829
    endloop
  endfacet
  facet normal -0.254261 0.532978 -0.807023
    outer loop
      vertex -10.9566 1.41421 27.22
      vertex -4.20588 2.8366 26.0325
      vertex -4.28267 2.7523 26.001
    endloop
  endfacet
  facet normal -0.254261 0.532978 -0.807023
    outer loop
      vertex -4.28267 2.7523 26.001
      vertex -4.61724 2.09141 25.6699
      vertex -4.80626 1.71803 25.4829
    endloop
  endfacet
  facet normal -0.263498 0.797658 -0.542504
    outer loop
      vertex -10.9793 1.84776 27.8684
      vertex -4.03603 3.0091 26.2036
      vertex -10.9566 1.41421 27.22
    endloop
  endfacet
  facet normal -0.263498 0.797658 -0.542504
    outer loop
      vertex -10.9566 1.41421 27.22
      vertex -4.03603 3.0091 26.2036
      vertex -4.20588 2.8366 26.0325
    endloop
  endfacet
  facet normal -0.263498 0.797658 -0.542504
    outer loop
      vertex -10.9793 1.84776 27.8684
      vertex -2.67518 4.14156 27.2077
      vertex -3.27613 3.78086 26.9693
    endloop
  endfacet
  facet normal -0.263498 0.797658 -0.542504
    outer loop
      vertex -10.9793 1.84776 27.8684
      vertex -3.27613 3.78086 26.9693
      vertex -3.76063 3.2888 26.4811
    endloop
  endfacet
  facet normal -0.263498 0.797658 -0.542504
    outer loop
      vertex -10.9793 1.84776 27.8684
      vertex -3.76063 3.2888 26.4811
      vertex -4.03603 3.0091 26.2036
    endloop
  endfacet
  facet normal -0.275567 0.940901 -0.196894
    outer loop
      vertex -11.006 2 28.6333
      vertex -2.57121 4.19608 27.3227
      vertex -10.9793 1.84776 27.8684
    endloop
  endfacet
  facet normal -0.275567 0.940901 -0.196894
    outer loop
      vertex -10.9793 1.84776 27.8684
      vertex -2.57121 4.19608 27.3227
      vertex -2.61111 4.17516 27.2786
    endloop
  endfacet
  facet normal -0.275567 0.940901 -0.196894
    outer loop
      vertex -10.9793 1.84776 27.8684
      vertex -2.61111 4.17516 27.2786
      vertex -2.67518 4.14156 27.2077
    endloop
  endfacet
  facet normal -0.275567 0.940902 -0.196894
    outer loop
      vertex -1.28438 4.69566 27.9091
      vertex -1.01209 5 28.9823
      vertex -0.974633 4.78654 27.9098
    endloop
  endfacet
  facet normal -0.275567 0.940902 -0.196894
    outer loop
      vertex -11.006 2 28.6333
      vertex -1.01209 5 28.9823
      vertex -2.04281 4.47314 27.9072
    endloop
  endfacet
  facet normal -0.275567 0.940902 -0.196894
    outer loop
      vertex -11.006 2 28.6333
      vertex -2.04281 4.47314 27.9072
      vertex -2.57121 4.19608 27.3227
    endloop
  endfacet
  facet normal -0.275567 0.940902 -0.196894
    outer loop
      vertex -2.04281 4.47314 27.9072
      vertex -1.01209 5 28.9823
      vertex -1.28438 4.69566 27.9091
    endloop
  endfacet
  facet normal -0.28863 0.940902 0.177192
    outer loop
      vertex -11.006 2 28.6333
      vertex -11.0327 1.84776 29.3982
      vertex -1.01209 5 28.9823
    endloop
  endfacet
  facet normal -0.28863 0.940902 0.177192
    outer loop
      vertex -1.01209 5 28.9823
      vertex -11.0327 1.84776 29.3982
      vertex -1.07886 4.6194 30.8946
    endloop
  endfacet
  facet normal -0.300699 0.797658 0.522802
    outer loop
      vertex -11.0327 1.84776 29.3982
      vertex -11.0553 1.41421 30.0467
      vertex -1.07886 4.6194 30.8946
    endloop
  endfacet
  facet normal -0.300699 0.797658 0.522802
    outer loop
      vertex -11.0553 1.41421 30.0467
      vertex -3.29178 3.07442 31.979
      vertex -3.22576 3.16422 31.88
    endloop
  endfacet
  facet normal -0.300699 0.797658 0.522802
    outer loop
      vertex -11.0553 1.41421 30.0467
      vertex -3.22576 3.16422 31.88
      vertex -3.00362 3.46637 31.5467
    endloop
  endfacet
  facet normal -0.300699 0.797658 0.522802
    outer loop
      vertex -11.0553 1.41421 30.0467
      vertex -3.00362 3.46637 31.5467
      vertex -2.26483 3.97944 31.1889
    endloop
  endfacet
  facet normal -0.300699 0.797658 0.522802
    outer loop
      vertex -11.0553 1.41421 30.0467
      vertex -2.26483 3.97944 31.1889
      vertex -1.9251 4.21538 31.0243
    endloop
  endfacet
  facet normal -0.300699 0.797658 0.522802
    outer loop
      vertex -11.0553 1.41421 30.0467
      vertex -1.9251 4.21538 31.0243
      vertex -1.07886 4.6194 30.8946
    endloop
  endfacet
  facet normal -0.300699 0.797658 0.522802
    outer loop
      vertex -1.08773 4.44959 31.1486
      vertex -1.07886 4.6194 30.8946
      vertex -1.9251 4.21538 31.0243
    endloop
  endfacet
  facet normal -0.309936 0.532977 0.787321
    outer loop
      vertex -11.0553 1.41421 30.0467
      vertex -11.0705 0.765367 30.48
      vertex -3.44181 2.89246 32.0431
    endloop
  endfacet
  facet normal -0.309936 0.532977 0.787321
    outer loop
      vertex -3.29178 3.07442 31.979
      vertex -11.0553 1.41421 30.0467
      vertex -3.44181 2.89246 32.0431
    endloop
  endfacet
  facet normal -0.309936 0.532978 0.787321
    outer loop
      vertex -3.93738 2.13004 32.3642
      vertex -11.0705 0.765367 30.48
      vertex -4.166 1.56627 32.6558
    endloop
  endfacet
  facet normal -0.309936 0.532978 0.787321
    outer loop
      vertex -3.80859 2.44763 32.1999
      vertex -11.0705 0.765367 30.48
      vertex -3.93738 2.13004 32.3642
    endloop
  endfacet
  facet normal -0.309936 0.532978 0.787321
    outer loop
      vertex -3.44181 2.89246 32.0431
      vertex -11.0705 0.765367 30.48
      vertex -3.80859 2.44763 32.1999
    endloop
  endfacet
  facet normal -0.905971 0.413744 0.0896217
    outer loop
      vertex -4.30285 1.26343 32.6704
      vertex -3.83797 1.12693 38
      vertex -4.28044 1.31304 32.668
    endloop
  endfacet
  facet normal -0.905971 0.413744 0.0896217
    outer loop
      vertex -4.28044 1.31304 32.668
      vertex -3.83797 1.12693 38
      vertex -3.36501 2.16256 38
    endloop
  endfacet
  facet normal -0.905971 0.413744 0.0896217
    outer loop
      vertex -4.166 1.56627 32.6558
      vertex -3.36501 2.16256 38
      vertex -3.93738 2.13004 32.3642
    endloop
  endfacet
  facet normal -0.905971 0.413744 0.0896217
    outer loop
      vertex -4.28044 1.31304 32.668
      vertex -3.36501 2.16256 38
      vertex -4.166 1.56627 32.6558
    endloop
  endfacet
  facet normal -0.985838 0.141742 0.0896217
    outer loop
      vertex -4.30285 1.26343 32.6704
      vertex -4.34387 0.94663 32.7202
      vertex -3.83797 1.12693 38
    endloop
  endfacet
  facet normal -0.985838 0.141742 0.0896217
    outer loop
      vertex -4.46644 0 32.8692
      vertex -4 0 38
      vertex -4.34387 0.94663 32.7202
    endloop
  endfacet
  facet normal -0.985838 0.141742 0.0896217
    outer loop
      vertex -4.34387 0.94663 32.7202
      vertex -4 0 38
      vertex -3.83797 1.12693 38
    endloop
  endfacet
  facet normal -0.985838 -0.141742 0.0896217
    outer loop
      vertex -4.46644 0 32.8692
      vertex -4.43388 -0.251457 32.8296
      vertex -4 0 38
    endloop
  endfacet
  facet normal -0.985838 -0.141742 0.0896217
    outer loop
      vertex -4 0 38
      vertex -4.43388 -0.251457 32.8296
      vertex -4.42636 -0.309536 32.8205
    endloop
  endfacet
  facet normal -0.985838 -0.141742 0.0896217
    outer loop
      vertex -4.42636 -0.309536 32.8205
      vertex -4.30285 -1.26343 32.6704
      vertex -4 0 38
    endloop
  endfacet
  facet normal -0.985838 -0.141742 0.0896217
    outer loop
      vertex -4 0 38
      vertex -4.30285 -1.26343 32.6704
      vertex -3.83797 -1.12693 38
    endloop
  endfacet
  facet normal -0.905972 -0.413743 0.0896217
    outer loop
      vertex -3.83797 -1.12693 38
      vertex -4.30285 -1.26343 32.6704
      vertex -4.17006 -1.55727 32.6562
    endloop
  endfacet
  facet normal -0.905971 -0.413744 0.0896217
    outer loop
      vertex -4.17006 -1.55727 32.6562
      vertex -4.166 -1.56627 32.6558
      vertex -3.83797 -1.12693 38
    endloop
  endfacet
  facet normal -0.905971 -0.413744 0.0896217
    outer loop
      vertex -3.83797 -1.12693 38
      vertex -4.166 -1.56627 32.6558
      vertex -4.08487 -1.76634 32.5523
    endloop
  endfacet
  facet normal -0.905971 -0.413744 0.0896217
    outer loop
      vertex -4.08487 -1.76634 32.5523
      vertex -3.80859 -2.44763 32.1999
      vertex -3.83797 -1.12693 38
    endloop
  endfacet
  facet normal -0.905971 -0.413744 0.0896217
    outer loop
      vertex -3.83797 -1.12693 38
      vertex -3.80859 -2.44763 32.1999
      vertex -3.36501 -2.16256 38
    endloop
  endfacet
  facet normal -0.752708 -0.652226 0.0896217
    outer loop
      vertex -3.36501 -2.16256 38
      vertex -3.80859 -2.44763 32.1999
      vertex -3.58283 -2.72143 32.1034
    endloop
  endfacet
  facet normal -0.752708 -0.652225 0.0896217
    outer loop
      vertex -3.58283 -2.72143 32.1034
      vertex -3.29178 -3.07442 31.979
      vertex -3.36501 -2.16256 38
    endloop
  endfacet
  facet normal -0.752708 -0.652225 0.0896217
    outer loop
      vertex -3.36501 -2.16256 38
      vertex -3.29178 -3.07442 31.979
      vertex -3.21327 -3.18121 31.8612
    endloop
  endfacet
  facet normal -0.752708 -0.652225 0.0896217
    outer loop
      vertex -3.21327 -3.18121 31.8612
      vertex -3.00362 -3.46637 31.5467
      vertex -3.36501 -2.16256 38
    endloop
  endfacet
  facet normal -0.752708 -0.652225 0.0896217
    outer loop
      vertex -3.36501 -2.16256 38
      vertex -3.00362 -3.46637 31.5467
      vertex -2.61944 -3.023 38
    endloop
  endfacet
  facet normal -0.538465 -0.837868 0.0896217
    outer loop
      vertex -2.61944 -3.023 38
      vertex -3.00362 -3.46637 31.5467
      vertex -2.67723 -3.69303 31.3886
    endloop
  endfacet
  facet normal -0.538465 -0.837868 0.0896217
    outer loop
      vertex -2.61944 -3.023 38
      vertex -2.67723 -3.69303 31.3886
      vertex -1.9251 -4.21538 31.0243
    endloop
  endfacet
  facet normal -0.538465 -0.837868 0.0896217
    outer loop
      vertex -1.66166 -3.63853 38
      vertex -2.61944 -3.023 38
      vertex -1.9251 -4.21538 31.0243
    endloop
  endfacet
  facet normal -0.280599 -0.955632 0.0896217
    outer loop
      vertex -1.66166 -3.63853 38
      vertex -1.9251 -4.21538 31.0243
      vertex -1.5222 -4.32807 31.0841
    endloop
  endfacet
  facet normal -0.280599 -0.955632 0.0896217
    outer loop
      vertex -0.569259 -3.95929 38
      vertex -1.66166 -3.63853 38
      vertex -1.5222 -4.32807 31.0841
    endloop
  endfacet
  facet normal -0.280599 -0.955632 0.0896217
    outer loop
      vertex -0.974633 -4.78654 27.9098
      vertex -0.569259 -3.95929 38
      vertex -1.08773 -4.44959 31.1486
    endloop
  endfacet
  facet normal -0.280599 -0.955632 0.0896217
    outer loop
      vertex -1.08773 -4.44959 31.1486
      vertex -0.569259 -3.95929 38
      vertex -1.5222 -4.32807 31.0841
    endloop
  endfacet
  facet normal -0.280599 -0.955632 0.0896217
    outer loop
      vertex -0.996204 -6.92875 5
      vertex -0.569259 -3.95929 38
      vertex -0.974633 -4.78654 27.9098
    endloop
  endfacet
  facet normal -0.280599 -0.955632 0.0896217
    outer loop
      vertex -0.996204 -6.92875 5
      vertex -0.974633 -4.78654 27.9098
      vertex -1.45816 -4.64467 27.9086
    endloop
  endfacet
  facet normal 0.999391 0 0.0348995
    outer loop
      vertex -0.974633 -4.78654 27.9098
      vertex -1.08773 -4.44959 31.1486
      vertex -1.07886 -4.6194 30.8946
    endloop
  endfacet
  facet normal 0.999391 0 0.0348995
    outer loop
      vertex -1.01209 -5 28.9823
      vertex -0.974633 -4.78654 27.9098
      vertex -1.07886 -4.6194 30.8946
    endloop
  endfacet
  facet normal -0.280599 -0.955632 0.0896217
    outer loop
      vertex -2.04281 -4.47314 27.9072
      vertex -2.9079 -6.36742 5
      vertex -0.996204 -6.92875 5
    endloop
  endfacet
  facet normal -0.280599 -0.955632 0.0896217
    outer loop
      vertex -1.45816 -4.64467 27.9086
      vertex -2.04281 -4.47314 27.9072
      vertex -0.996204 -6.92875 5
    endloop
  endfacet
  facet normal -0.538465 -0.837868 0.0896217
    outer loop
      vertex -2.67518 -4.14156 27.2077
      vertex -2.9079 -6.36742 5
      vertex -2.04281 -4.47314 27.9072
    endloop
  endfacet
  facet normal -0.538465 -0.837868 0.0896217
    outer loop
      vertex -2.71392 -4.11831 27.1923
      vertex -2.9079 -6.36742 5
      vertex -2.67518 -4.14156 27.2077
    endloop
  endfacet
  facet normal -0.538465 -0.837868 0.0896217
    outer loop
      vertex -3.27613 -3.78086 26.9693
      vertex -4.58402 -5.29025 5
      vertex -2.9079 -6.36742 5
    endloop
  endfacet
  facet normal -0.538465 -0.837868 0.0896217
    outer loop
      vertex -2.94652 -3.9787 27.1
      vertex -3.27613 -3.78086 26.9693
      vertex -2.9079 -6.36742 5
    endloop
  endfacet
  facet normal -0.538465 -0.837868 0.0896217
    outer loop
      vertex -2.71392 -4.11831 27.1923
      vertex -2.94652 -3.9787 27.1
      vertex -2.9079 -6.36742 5
    endloop
  endfacet
  facet normal -0.752708 -0.652225 0.0896217
    outer loop
      vertex -3.79167 -3.25727 26.4498
      vertex -4.58402 -5.29025 5
      vertex -3.27613 -3.78086 26.9693
    endloop
  endfacet
  facet normal -0.752708 -0.652226 0.0896217
    outer loop
      vertex -5.88877 -3.78449 5
      vertex -4.58402 -5.29025 5
      vertex -4.28267 -2.7523 26.001
    endloop
  endfacet
  facet normal -0.752708 -0.652226 0.0896217
    outer loop
      vertex -4.20588 -2.8366 26.0325
      vertex -4.58402 -5.29025 5
      vertex -3.79167 -3.25727 26.4498
    endloop
  endfacet
  facet normal -0.752708 -0.652226 0.0896217
    outer loop
      vertex -4.28267 -2.7523 26.001
      vertex -4.58402 -5.29025 5
      vertex -4.20588 -2.8366 26.0325
    endloop
  endfacet
  facet normal -0.905971 -0.413744 0.0896217
    outer loop
      vertex -5.88877 -3.78449 5
      vertex -4.28267 -2.7523 26.001
      vertex -4.60338 -2.11879 25.6836
    endloop
  endfacet
  facet normal -0.905971 -0.413744 0.0896217
    outer loop
      vertex -4.60338 -2.11879 25.6836
      vertex -4.28267 -2.7523 26.001
      vertex -4.3721 -2.57564 25.9125
    endloop
  endfacet
  facet normal -0.905972 -0.413743 0.0896217
    outer loop
      vertex -6.71645 -1.97213 5
      vertex -5.88877 -3.78449 5
      vertex -4.94147 -1.45095 25.3491
    endloop
  endfacet
  facet normal -0.905972 -0.413743 0.0896217
    outer loop
      vertex -4.94147 -1.45095 25.3491
      vertex -5.88877 -3.78449 5
      vertex -4.60338 -2.11879 25.6836
    endloop
  endfacet
  facet normal -0.985838 -0.141742 0.0896217
    outer loop
      vertex -6.71645 -1.97213 5
      vertex -4.94147 -1.45095 25.3491
      vertex -4.94206 -1.44795 25.3473
    endloop
  endfacet
  facet normal -0.985838 -0.141742 0.0896217
    outer loop
      vertex -6.71645 -1.97213 5
      vertex -4.94206 -1.44795 25.3473
      vertex -4.99265 -1.12763 25.2975
    endloop
  endfacet
  facet normal -0.985838 -0.141742 0.0896217
    outer loop
      vertex -6.71645 -1.97213 5
      vertex -4.99265 -1.12763 25.2975
      vertex -5.0503 -0.762514 25.2407
    endloop
  endfacet
  facet normal -0.985838 -0.141742 0.0896217
    outer loop
      vertex -7 0 5
      vertex -6.71645 -1.97213 5
      vertex -5.17072 0 25.1221
    endloop
  endfacet
  facet normal -0.985838 -0.141742 0.0896217
    outer loop
      vertex -5.17072 0 25.1221
      vertex -6.71645 -1.97213 5
      vertex -5.0503 -0.762514 25.2407
    endloop
  endfacet
  facet normal -0.985838 0.141742 0.0896217
    outer loop
      vertex -7 0 5
      vertex -5.17072 0 25.1221
      vertex -5.06162 0.690827 25.2295
    endloop
  endfacet
  facet normal -0.985838 0.141742 0.0896217
    outer loop
      vertex -5.06162 0.690827 25.2295
      vertex -5.17072 0 25.1221
      vertex -5.1195 0.324353 25.1725
    endloop
  endfacet
  facet normal -0.985838 0.141742 0.0896217
    outer loop
      vertex -7 0 5
      vertex -5.06162 0.690827 25.2295
      vertex -6.71645 1.97213 5
    endloop
  endfacet
  facet normal -0.985838 0.141742 0.0896217
    outer loop
      vertex -6.71645 1.97213 5
      vertex -5.06162 0.690827 25.2295
      vertex -4.94206 1.44795 25.3473
    endloop
  endfacet
  facet normal -0.985838 0.141742 0.0896217
    outer loop
      vertex -6.71645 1.97213 5
      vertex -4.94206 1.44795 25.3473
      vertex -4.94147 1.45095 25.3491
    endloop
  endfacet
  facet normal -0.905971 0.413744 0.0896217
    outer loop
      vertex -6.71645 1.97213 5
      vertex -4.80626 1.71803 25.4829
      vertex -4.61724 2.09141 25.6699
    endloop
  endfacet
  facet normal -0.905971 0.413744 0.0896217
    outer loop
      vertex -6.71645 1.97213 5
      vertex -4.94147 1.45095 25.3491
      vertex -4.80626 1.71803 25.4829
    endloop
  endfacet
  facet normal -0.905972 0.413743 0.0896217
    outer loop
      vertex -6.71645 1.97213 5
      vertex -4.61724 2.09141 25.6699
      vertex -5.88877 3.78449 5
    endloop
  endfacet
  facet normal -0.905972 0.413743 0.0896217
    outer loop
      vertex -5.88877 3.78449 5
      vertex -4.61724 2.09141 25.6699
      vertex -4.28267 2.7523 26.001
    endloop
  endfacet
  facet normal -0.752708 0.652225 0.0896217
    outer loop
      vertex -5.88877 3.78449 5
      vertex -4.20588 2.8366 26.0325
      vertex -3.76063 3.2888 26.4811
    endloop
  endfacet
  facet normal -0.752708 0.652225 0.0896217
    outer loop
      vertex -5.88877 3.78449 5
      vertex -4.28267 2.7523 26.001
      vertex -4.20588 2.8366 26.0325
    endloop
  endfacet
  facet normal -0.752708 0.652225 0.0896217
    outer loop
      vertex -4.20588 2.8366 26.0325
      vertex -4.03603 3.0091 26.2036
      vertex -3.76063 3.2888 26.4811
    endloop
  endfacet
  facet normal -0.752708 0.652226 0.0896217
    outer loop
      vertex -5.88877 3.78449 5
      vertex -3.76063 3.2888 26.4811
      vertex -4.58402 5.29025 5
    endloop
  endfacet
  facet normal -0.752708 0.652226 0.0896217
    outer loop
      vertex -4.58402 5.29025 5
      vertex -3.76063 3.2888 26.4811
      vertex -3.27613 3.78086 26.9693
    endloop
  endfacet
  facet normal -0.538465 0.837868 0.0896217
    outer loop
      vertex -4.58402 5.29025 5
      vertex -2.67518 4.14156 27.2077
      vertex -2.61111 4.17516 27.2786
    endloop
  endfacet
  facet normal -0.538465 0.837868 0.0896217
    outer loop
      vertex -4.58402 5.29025 5
      vertex -3.27613 3.78086 26.9693
      vertex -2.67518 4.14156 27.2077
    endloop
  endfacet
  facet normal -0.538465 0.837868 0.0896217
    outer loop
      vertex -4.58402 5.29025 5
      vertex -2.61111 4.17516 27.2786
      vertex -2.9079 6.36742 5
    endloop
  endfacet
  facet normal -0.538465 0.837868 0.0896217
    outer loop
      vertex -2.9079 6.36742 5
      vertex -2.61111 4.17516 27.2786
      vertex -2.57121 4.19608 27.3227
    endloop
  endfacet
  facet normal -0.538465 0.837868 0.0896217
    outer loop
      vertex -2.9079 6.36742 5
      vertex -2.57121 4.19608 27.3227
      vertex -2.04281 4.47314 27.9072
    endloop
  endfacet
  facet normal -0.280599 0.955632 0.0896217
    outer loop
      vertex -1.28438 4.69566 27.9091
      vertex -2.9079 6.36742 5
      vertex -2.04281 4.47314 27.9072
    endloop
  endfacet
  facet normal -0.280599 0.955632 0.0896217
    outer loop
      vertex -2.9079 6.36742 5
      vertex -1.28438 4.69566 27.9091
      vertex -0.996204 6.92875 5
    endloop
  endfacet
  facet normal -0.280599 0.955632 0.0896217
    outer loop
      vertex -0.996204 6.92875 5
      vertex -1.28438 4.69566 27.9091
      vertex -0.974633 4.78654 27.9098
    endloop
  endfacet
  facet normal -0.280599 0.955632 0.0896217
    outer loop
      vertex -0.974633 4.78654 27.9098
      vertex -1.07686 4.48197 30.8373
      vertex -0.569259 3.95929 38
    endloop
  endfacet
  facet normal -0.280599 0.955632 0.0896217
    outer loop
      vertex -0.974633 4.78654 27.9098
      vertex -0.569259 3.95929 38
      vertex -0.996204 6.92875 5
    endloop
  endfacet
  facet normal 0.999391 0 0.0348995
    outer loop
      vertex -1.07886 4.6194 30.8946
      vertex -1.08773 4.44959 31.1486
      vertex -1.07686 4.48197 30.8373
    endloop
  endfacet
  facet normal 0.999391 0 0.0348995
    outer loop
      vertex -0.974633 4.78654 27.9098
      vertex -1.07886 4.6194 30.8946
      vertex -1.07686 4.48197 30.8373
    endloop
  endfacet
  facet normal 0.999391 0 0.0348995
    outer loop
      vertex -0.974633 4.78654 27.9098
      vertex -1.01209 5 28.9823
      vertex -1.07886 4.6194 30.8946
    endloop
  endfacet
  facet normal -0.280599 0.955632 0.0896217
    outer loop
      vertex -1.9251 4.21538 31.0243
      vertex -1.66166 3.63853 38
      vertex -1.08773 4.44959 31.1486
    endloop
  endfacet
  facet normal -0.280599 0.955632 0.0896217
    outer loop
      vertex -1.08773 4.44959 31.1486
      vertex -1.66166 3.63853 38
      vertex -0.569259 3.95929 38
    endloop
  endfacet
  facet normal -0.280599 0.955632 0.0896217
    outer loop
      vertex -1.08773 4.44959 31.1486
      vertex -0.569259 3.95929 38
      vertex -1.07686 4.48197 30.8373
    endloop
  endfacet
  facet normal -0.538465 0.837868 0.0896217
    outer loop
      vertex -1.9251 4.21538 31.0243
      vertex -2.26483 3.97944 31.1889
      vertex -1.66166 3.63853 38
    endloop
  endfacet
  facet normal -0.538465 0.837868 0.0896217
    outer loop
      vertex -3.00362 3.46637 31.5467
      vertex -2.61944 3.023 38
      vertex -2.26483 3.97944 31.1889
    endloop
  endfacet
  facet normal -0.538465 0.837868 0.0896217
    outer loop
      vertex -2.26483 3.97944 31.1889
      vertex -2.61944 3.023 38
      vertex -1.66166 3.63853 38
    endloop
  endfacet
  facet normal -0.752708 0.652226 0.0896217
    outer loop
      vertex -3.00362 3.46637 31.5467
      vertex -3.22576 3.16422 31.88
      vertex -2.61944 3.023 38
    endloop
  endfacet
  facet normal -0.752708 0.652225 0.0896217
    outer loop
      vertex -3.80859 2.44763 32.1999
      vertex -3.36501 2.16256 38
      vertex -3.44181 2.89246 32.0431
    endloop
  endfacet
  facet normal -0.752708 0.652225 0.0896217
    outer loop
      vertex -3.44181 2.89246 32.0431
      vertex -3.36501 2.16256 38
      vertex -2.61944 3.023 38
    endloop
  endfacet
  facet normal -0.752708 0.652225 0.0896217
    outer loop
      vertex -3.29178 3.07442 31.979
      vertex -2.61944 3.023 38
      vertex -3.22576 3.16422 31.88
    endloop
  endfacet
  facet normal -0.752708 0.652225 0.0896217
    outer loop
      vertex -3.44181 2.89246 32.0431
      vertex -2.61944 3.023 38
      vertex -3.29178 3.07442 31.979
    endloop
  endfacet
  facet normal -0.905972 0.413743 0.0896217
    outer loop
      vertex -3.80859 2.44763 32.1999
      vertex -3.93738 2.13004 32.3642
      vertex -3.36501 2.16256 38
    endloop
  endfacet
  facet normal 0 0 1
    outer loop
      vertex -3.83797 1.12693 38
      vertex -4 0 38
      vertex -3.83797 -1.12693 38
    endloop
  endfacet
  facet normal 0 0 1
    outer loop
      vertex -2.61944 -3.023 38
      vertex -3.83797 1.12693 38
      vertex -3.36501 -2.16256 38
    endloop
  endfacet
  facet normal 0 0 1
    outer loop
      vertex -3.36501 -2.16256 38
      vertex -3.83797 1.12693 38
      vertex -3.83797 -1.12693 38
    endloop
  endfacet
  facet normal 0 0 1
    outer loop
      vertex -1.66166 -3.63853 38
      vertex -3.83797 1.12693 38
      vertex -2.61944 -3.023 38
    endloop
  endfacet
  facet normal 0 0 1
    outer loop
      vertex -0.569259 -3.95929 38
      vertex -3.83797 1.12693 38
      vertex -1.66166 -3.63853 38
    endloop
  endfacet
  facet normal 0 0 1
    outer loop
      vertex 0.569259 -3.95929 38
      vertex -3.83797 1.12693 38
      vertex -0.569259 -3.95929 38
    endloop
  endfacet
  facet normal 0 0 1
    outer loop
      vertex 1.66166 -3.63853 38
      vertex -3.83797 1.12693 38
      vertex 0.569259 -3.95929 38
    endloop
  endfacet
  facet normal 0 0 1
    outer loop
      vertex 2.61944 -3.023 38
      vertex -3.83797 1.12693 38
      vertex 1.66166 -3.63853 38
    endloop
  endfacet
  facet normal 0 0 1
    outer loop
      vertex 3.36501 -2.16256 38
      vertex -3.83797 1.12693 38
      vertex 2.61944 -3.023 38
    endloop
  endfacet
  facet normal 0 0 1
    outer loop
      vertex 3.83797 -1.12693 38
      vertex -3.83797 1.12693 38
      vertex 3.36501 -2.16256 38
    endloop
  endfacet
  facet normal 0 0 1
    outer loop
      vertex 4 0 38
      vertex -3.83797 1.12693 38
      vertex 3.83797 -1.12693 38
    endloop
  endfacet
  facet normal 0 0 1
    outer loop
      vertex 3.83797 1.12693 38
      vertex -3.83797 1.12693 38
      vertex 4 0 38
    endloop
  endfacet
  facet normal 0 0 1
    outer loop
      vertex 3.36501 2.16256 38
      vertex -3.83797 1.12693 38
      vertex 3.83797 1.12693 38
    endloop
  endfacet
  facet normal 0 0 1
    outer loop
      vertex 2.61944 3.023 38
      vertex -3.83797 1.12693 38
      vertex 3.36501 2.16256 38
    endloop
  endfacet
  facet normal 0 0 1
    outer loop
      vertex 1.66166 3.63853 38
      vertex -3.83797 1.12693 38
      vertex 2.61944 3.023 38
    endloop
  endfacet
  facet normal 0 0 1
    outer loop
      vertex 0.569259 3.95929 38
      vertex -3.83797 1.12693 38
      vertex 1.66166 3.63853 38
    endloop
  endfacet
  facet normal 0 0 1
    outer loop
      vertex -0.569259 3.95929 38
      vertex -3.83797 1.12693 38
      vertex 0.569259 3.95929 38
    endloop
  endfacet
  facet normal 0 0 1
    outer loop
      vertex -1.66166 3.63853 38
      vertex -3.83797 1.12693 38
      vertex -0.569259 3.95929 38
    endloop
  endfacet
  facet normal 0 0 1
    outer loop
      vertex -2.61944 3.023 38
      vertex -3.83797 1.12693 38
      vertex -1.66166 3.63853 38
    endloop
  endfacet
  facet normal 0 0 1
    outer loop
      vertex -3.36501 2.16256 38
      vertex -3.83797 1.12693 38
      vertex -2.61944 3.023 38
    endloop
  endfacet
  facet normal 0 -0.995976 0.0896217
    outer loop
      vertex -0.569259 -3.95929 38
      vertex -0.996204 -6.92875 5
      vertex 0.996204 -6.92875 5
    endloop
  endfacet
  facet normal 0 -0.995976 0.0896217
    outer loop
      vertex 0.569259 -3.95929 38
      vertex -0.569259 -3.95929 38
      vertex 0.996204 -6.92875 5
    endloop
  endfacet
  facet normal 0 0 1
    outer loop
      vertex -9.78148 2.07912 5
      vertex -10 0 5
      vertex -9.78148 -2.07912 5
    endloop
  endfacet
  facet normal 0 0 1
    outer loop
      vertex -8.09017 -5.87785 5
      vertex -9.78148 2.07912 5
      vertex -9.13546 -4.06737 5
    endloop
  endfacet
  facet normal 0 0 1
    outer loop
      vertex -9.13546 -4.06737 5
      vertex -9.78148 2.07912 5
      vertex -9.78148 -2.07912 5
    endloop
  endfacet
  facet normal 0 0 1
    outer loop
      vertex -6.69131 -7.43145 5
      vertex -9.78148 2.07912 5
      vertex -8.09017 -5.87785 5
    endloop
  endfacet
  facet normal 0 0 1
    outer loop
      vertex -5 -8.66025 5
      vertex -9.78148 2.07912 5
      vertex -6.69131 -7.43145 5
    endloop
  endfacet
  facet normal 0 0 1
    outer loop
      vertex -3.09017 -9.51056 5
      vertex -9.78148 2.07912 5
      vertex -5 -8.66025 5
    endloop
  endfacet
  facet normal 0 0 1
    outer loop
      vertex -5.88877 -3.78449 5
      vertex -9.78148 2.07912 5
      vertex -3.09017 -9.51056 5
    endloop
  endfacet
  facet normal 0 0 1
    outer loop
      vertex -6.71645 1.97213 5
      vertex -5.88877 3.78449 5
      vertex -9.78148 2.07912 5
    endloop
  endfacet
  facet normal 0 0 1
    outer loop
      vertex 2.9079 -6.36742 5
      vertex 0.996204 -6.92875 5
      vertex 5 -8.66025 5
    endloop
  endfacet
  facet normal 0 0 1
    outer loop
      vertex -5.88877 3.78449 5
      vertex -4.58402 5.29025 5
      vertex -9.78148 2.07912 5
    endloop
  endfacet
  facet normal 0 0 1
    outer loop
      vertex 2.9079 6.36742 5
      vertex 4.58402 5.29025 5
      vertex 6.69131 7.43145 5
    endloop
  endfacet
  facet normal 0 0 1
    outer loop
      vertex -1.04529 9.94522 5
      vertex -9.78148 2.07912 5
      vertex 1.04529 9.94522 5
    endloop
  endfacet
  facet normal 0 0 1
    outer loop
      vertex -3.09017 9.51056 5
      vertex -9.78148 2.07912 5
      vertex -1.04529 9.94522 5
    endloop
  endfacet
  facet normal 0 0 1
    outer loop
      vertex -5 8.66025 5
      vertex -9.78148 2.07912 5
      vertex -3.09017 9.51056 5
    endloop
  endfacet
  facet normal 0 0 1
    outer loop
      vertex -6.69131 7.43145 5
      vertex -9.78148 2.07912 5
      vertex -5 8.66025 5
    endloop
  endfacet
  facet normal 0 0 1
    outer loop
      vertex -8.09017 5.87785 5
      vertex -9.78148 2.07912 5
      vertex -6.69131 7.43145 5
    endloop
  endfacet
  facet normal 0 0 1
    outer loop
      vertex -9.13546 4.06737 5
      vertex -9.78148 2.07912 5
      vertex -8.09017 5.87785 5
    endloop
  endfacet
  facet normal 0 0 1
    outer loop
      vertex 5.88877 -3.78449 5
      vertex 4.58402 -5.29025 5
      vertex 8.09017 -5.87785 5
    endloop
  endfacet
  facet normal 0 0 1
    outer loop
      vertex 7 0 5
      vertex 6.71645 -1.97213 5
      vertex 9.78148 -2.07912 5
    endloop
  endfacet
  facet normal 0 0 1
    outer loop
      vertex 0.996204 6.92875 5
      vertex 2.9079 6.36742 5
      vertex 5 8.66025 5
    endloop
  endfacet
  facet normal 0 0 1
    outer loop
      vertex 1.04529 9.94522 5
      vertex -9.78148 2.07912 5
      vertex -4.58402 5.29025 5
    endloop
  endfacet
  facet normal 0 0 1
    outer loop
      vertex 1.04529 9.94522 5
      vertex -2.9079 6.36742 5
      vertex 3.09017 9.51056 5
    endloop
  endfacet
  facet normal 0 0 1
    outer loop
      vertex 1.04529 9.94522 5
      vertex -4.58402 5.29025 5
      vertex -2.9079 6.36742 5
    endloop
  endfacet
  facet normal 0 0 1
    outer loop
      vertex 3.09017 9.51056 5
      vertex -0.996204 6.92875 5
      vertex 5 8.66025 5
    endloop
  endfacet
  facet normal 0 0 1
    outer loop
      vertex -2.9079 6.36742 5
      vertex -0.996204 6.92875 5
      vertex 3.09017 9.51056 5
    endloop
  endfacet
  facet normal 0 0 1
    outer loop
      vertex -0.996204 6.92875 5
      vertex 0.996204 6.92875 5
      vertex 5 8.66025 5
    endloop
  endfacet
  facet normal 0 0 1
    outer loop
      vertex 5.88877 3.78449 5
      vertex 6.71645 1.97213 5
      vertex 9.78148 2.07912 5
    endloop
  endfacet
  facet normal 0 0 1
    outer loop
      vertex 5 8.66025 5
      vertex 2.9079 6.36742 5
      vertex 6.69131 7.43145 5
    endloop
  endfacet
  facet normal 0 0 1
    outer loop
      vertex 6.69131 7.43145 5
      vertex 4.58402 5.29025 5
      vertex 8.09017 5.87785 5
    endloop
  endfacet
  facet normal 0 0 1
    outer loop
      vertex 8.09017 5.87785 5
      vertex 5.88877 3.78449 5
      vertex 9.13546 4.06737 5
    endloop
  endfacet
  facet normal 0 0 1
    outer loop
      vertex 9.78148 2.07912 5
      vertex 6.71645 1.97213 5
      vertex 10 0 5
    endloop
  endfacet
  facet normal 0 0 1
    outer loop
      vertex 10 0 5
      vertex 7 0 5
      vertex 9.78148 -2.07912 5
    endloop
  endfacet
  facet normal 0 0 1
    outer loop
      vertex 4.58402 5.29025 5
      vertex 5.88877 3.78449 5
      vertex 8.09017 5.87785 5
    endloop
  endfacet
  facet normal 0 0 1
    outer loop
      vertex 9.78148 -2.07912 5
      vertex 6.71645 -1.97213 5
      vertex 9.13546 -4.06737 5
    endloop
  endfacet
  facet normal 0 0 1
    outer loop
      vertex 5.88877 3.78449 5
      vertex 9.78148 2.07912 5
      vertex 9.13546 4.06737 5
    endloop
  endfacet
  facet normal 0 0 1
    outer loop
      vertex 9.13546 -4.06737 5
      vertex 5.88877 -3.78449 5
      vertex 8.09017 -5.87785 5
    endloop
  endfacet
  facet normal 0 0 1
    outer loop
      vertex 6.71645 1.97213 5
      vertex 7 0 5
      vertex 10 0 5
    endloop
  endfacet
  facet normal 0 0 1
    outer loop
      vertex 8.09017 -5.87785 5
      vertex 4.58402 -5.29025 5
      vertex 6.69131 -7.43145 5
    endloop
  endfacet
  facet normal 0 0 1
    outer loop
      vertex 6.69131 -7.43145 5
      vertex 2.9079 -6.36742 5
      vertex 5 -8.66025 5
    endloop
  endfacet
  facet normal 0 0 1
    outer loop
      vertex 5 -8.66025 5
      vertex 0.996204 -6.92875 5
      vertex 3.09017 -9.51056 5
    endloop
  endfacet
  facet normal 0 0 1
    outer loop
      vertex 3.09017 -9.51056 5
      vertex -0.996204 -6.92875 5
      vertex 1.04529 -9.94522 5
    endloop
  endfacet
  facet normal 0 0 1
    outer loop
      vertex 6.71645 -1.97213 5
      vertex 5.88877 -3.78449 5
      vertex 9.13546 -4.06737 5
    endloop
  endfacet
  facet normal 0 0 1
    outer loop
      vertex 1.04529 -9.94522 5
      vertex -2.9079 -6.36742 5
      vertex -1.04529 -9.94522 5
    endloop
  endfacet
  facet normal 0 0 1
    outer loop
      vertex -1.04529 -9.94522 5
      vertex -4.58402 -5.29025 5
      vertex -3.09017 -9.51056 5
    endloop
  endfacet
  facet normal 0 0 1
    outer loop
      vertex -4.58402 -5.29025 5
      vertex -5.88877 -3.78449 5
      vertex -3.09017 -9.51056 5
    endloop
  endfacet
  facet normal 0 0 1
    outer loop
      vertex -2.9079 -6.36742 5
      vertex -4.58402 -5.29025 5
      vertex -1.04529 -9.94522 5
    endloop
  endfacet
  facet normal 0 0 1
    outer loop
      vertex -5.88877 -3.78449 5
      vertex -6.71645 -1.97213 5
      vertex -9.78148 2.07912 5
    endloop
  endfacet
  facet normal 0 0 1
    outer loop
      vertex -6.71645 -1.97213 5
      vertex -7 0 5
      vertex -9.78148 2.07912 5
    endloop
  endfacet
  facet normal 0 0 1
    outer loop
      vertex 4.58402 -5.29025 5
      vertex 2.9079 -6.36742 5
      vertex 6.69131 -7.43145 5
    endloop
  endfacet
  facet normal 0 0 1
    outer loop
      vertex -0.996204 -6.92875 5
      vertex -2.9079 -6.36742 5
      vertex 1.04529 -9.94522 5
    endloop
  endfacet
  facet normal 0 0 1
    outer loop
      vertex 0.996204 -6.92875 5
      vertex -0.996204 -6.92875 5
      vertex 3.09017 -9.51056 5
    endloop
  endfacet
  facet normal 0 0 1
    outer loop
      vertex -7 0 5
      vertex -6.71645 1.97213 5
      vertex -9.78148 2.07912 5
    endloop
  endfacet
  facet normal 0 0.995976 0.0896217
    outer loop
      vertex -0.996204 6.92875 5
      vertex -0.569259 3.95929 38
      vertex 0.996204 6.92875 5
    endloop
  endfacet
  facet normal 0 0.995976 0.0896217
    outer loop
      vertex 0.996204 6.92875 5
      vertex -0.569259 3.95929 38
      vertex 0.569259 3.95929 38
    endloop
  endfacet
  facet normal 0.280599 0.955632 0.0896217
    outer loop
      vertex 0.996204 6.92875 5
      vertex 0.569259 3.95929 38
      vertex 1.66166 3.63853 38
    endloop
  endfacet
  facet normal 0.280599 0.955632 0.0896217
    outer loop
      vertex 2.9079 6.36742 5
      vertex 0.996204 6.92875 5
      vertex 1.66166 3.63853 38
    endloop
  endfacet
  facet normal 0.538465 0.837868 0.0896217
    outer loop
      vertex 2.9079 6.36742 5
      vertex 1.66166 3.63853 38
      vertex 2.61944 3.023 38
    endloop
  endfacet
  facet normal 0.538465 0.837868 0.0896217
    outer loop
      vertex 2.9079 6.36742 5
      vertex 2.61944 3.023 38
      vertex 4.58402 5.29025 5
    endloop
  endfacet
  facet normal 0.752708 0.652225 0.0896217
    outer loop
      vertex 4.58402 5.29025 5
      vertex 2.61944 3.023 38
      vertex 3.36501 2.16256 38
    endloop
  endfacet
  facet normal 0.752708 0.652226 0.0896217
    outer loop
      vertex 4.58402 5.29025 5
      vertex 3.36501 2.16256 38
      vertex 5.88877 3.78449 5
    endloop
  endfacet
  facet normal 0.905971 0.413744 0.0896217
    outer loop
      vertex 5.88877 3.78449 5
      vertex 3.36501 2.16256 38
      vertex 3.83797 1.12693 38
    endloop
  endfacet
  facet normal 0.905972 0.413743 0.0896217
    outer loop
      vertex 5.88877 3.78449 5
      vertex 3.83797 1.12693 38
      vertex 6.71645 1.97213 5
    endloop
  endfacet
  facet normal 0.985838 0.141742 0.0896217
    outer loop
      vertex 6.71645 1.97213 5
      vertex 3.83797 1.12693 38
      vertex 4 0 38
    endloop
  endfacet
  facet normal 0.985838 0.141742 0.0896217
    outer loop
      vertex 6.71645 1.97213 5
      vertex 4 0 38
      vertex 7 0 5
    endloop
  endfacet
  facet normal 0.985838 -0.141742 0.0896217
    outer loop
      vertex 4 0 38
      vertex 3.83797 -1.12693 38
      vertex 7 0 5
    endloop
  endfacet
  facet normal 0.985838 -0.141742 0.0896217
    outer loop
      vertex 7 0 5
      vertex 3.83797 -1.12693 38
      vertex 6.71645 -1.97213 5
    endloop
  endfacet
  facet normal 0.905971 -0.413744 0.0896217
    outer loop
      vertex 3.83797 -1.12693 38
      vertex 3.36501 -2.16256 38
      vertex 6.71645 -1.97213 5
    endloop
  endfacet
  facet normal 0.905972 -0.413743 0.0896217
    outer loop
      vertex 6.71645 -1.97213 5
      vertex 3.36501 -2.16256 38
      vertex 5.88877 -3.78449 5
    endloop
  endfacet
  facet normal 0.752708 -0.652225 0.0896217
    outer loop
      vertex 3.36501 -2.16256 38
      vertex 2.61944 -3.023 38
      vertex 5.88877 -3.78449 5
    endloop
  endfacet
  facet normal 0.752708 -0.652226 0.0896217
    outer loop
      vertex 5.88877 -3.78449 5
      vertex 2.61944 -3.023 38
      vertex 4.58402 -5.29025 5
    endloop
  endfacet
  facet normal 0.538465 -0.837868 0.0896217
    outer loop
      vertex 2.61944 -3.023 38
      vertex 1.66166 -3.63853 38
      vertex 4.58402 -5.29025 5
    endloop
  endfacet
  facet normal 0.538465 -0.837868 0.0896217
    outer loop
      vertex 4.58402 -5.29025 5
      vertex 1.66166 -3.63853 38
      vertex 2.9079 -6.36742 5
    endloop
  endfacet
  facet normal 0.280599 -0.955632 0.0896217
    outer loop
      vertex 1.66166 -3.63853 38
      vertex 0.569259 -3.95929 38
      vertex 2.9079 -6.36742 5
    endloop
  endfacet
  facet normal 0.280599 -0.955632 0.0896217
    outer loop
      vertex 2.9079 -6.36742 5
      vertex 0.569259 -3.95929 38
      vertex 0.996204 -6.92875 5
    endloop
  endfacet
  facet normal -0.994522 0.104528 0
    outer loop
      vertex -10 0 0
      vertex -10 0 5
      vertex -9.78148 2.07912 0
    endloop
  endfacet
  facet normal -0.994522 0.104528 0
    outer loop
      vertex -9.78148 2.07912 0
      vertex -10 0 5
      vertex -9.78148 2.07912 5
    endloop
  endfacet
  facet normal -0.951057 0.309017 0
    outer loop
      vertex -9.78148 2.07912 0
      vertex -9.78148 2.07912 5
      vertex -9.13546 4.06737 0
    endloop
  endfacet
  facet normal -0.951057 0.309017 0
    outer loop
      vertex -9.13546 4.06737 0
      vertex -9.78148 2.07912 5
      vertex -9.13546 4.06737 5
    endloop
  endfacet
  facet normal -0.866025 0.5 0
    outer loop
      vertex -9.13546 4.06737 0
      vertex -9.13546 4.06737 5
      vertex -8.09017 5.87785 0
    endloop
  endfacet
  facet normal -0.866025 0.5 0
    outer loop
      vertex -8.09017 5.87785 0
      vertex -9.13546 4.06737 5
      vertex -8.09017 5.87785 5
    endloop
  endfacet
  facet normal -0.743145 0.669131 0
    outer loop
      vertex -8.09017 5.87785 0
      vertex -8.09017 5.87785 5
      vertex -6.69131 7.43145 0
    endloop
  endfacet
  facet normal -0.743145 0.669131 0
    outer loop
      vertex -6.69131 7.43145 0
      vertex -8.09017 5.87785 5
      vertex -6.69131 7.43145 5
    endloop
  endfacet
  facet normal -0.587785 0.809017 0
    outer loop
      vertex -6.69131 7.43145 0
      vertex -6.69131 7.43145 5
      vertex -5 8.66025 0
    endloop
  endfacet
  facet normal -0.587785 0.809017 0
    outer loop
      vertex -5 8.66025 0
      vertex -6.69131 7.43145 5
      vertex -5 8.66025 5
    endloop
  endfacet
  facet normal -0.406737 0.913545 0
    outer loop
      vertex -5 8.66025 0
      vertex -5 8.66025 5
      vertex -3.09017 9.51056 0
    endloop
  endfacet
  facet normal -0.406737 0.913545 0
    outer loop
      vertex -3.09017 9.51056 0
      vertex -5 8.66025 5
      vertex -3.09017 9.51056 5
    endloop
  endfacet
  facet normal -0.207912 0.978148 0
    outer loop
      vertex -3.09017 9.51056 0
      vertex -3.09017 9.51056 5
      vertex -1.04529 9.94522 0
    endloop
  endfacet
  facet normal -0.207912 0.978148 0
    outer loop
      vertex -1.04529 9.94522 0
      vertex -3.09017 9.51056 5
      vertex -1.04529 9.94522 5
    endloop
  endfacet
  facet normal 0 1 0
    outer loop
      vertex -1.04529 9.94522 0
      vertex -1.04529 9.94522 5
      vertex 1.04529 9.94522 0
    endloop
  endfacet
  facet normal 0 1 0
    outer loop
      vertex 1.04529 9.94522 0
      vertex -1.04529 9.94522 5
      vertex 1.04529 9.94522 5
    endloop
  endfacet
  facet normal 0.207912 0.978148 0
    outer loop
      vertex 1.04529 9.94522 0
      vertex 1.04529 9.94522 5
      vertex 3.09017 9.51056 0
    endloop
  endfacet
  facet normal 0.207912 0.978148 0
    outer loop
      vertex 3.09017 9.51056 0
      vertex 1.04529 9.94522 5
      vertex 3.09017 9.51056 5
    endloop
  endfacet
  facet normal 0.406737 0.913545 0
    outer loop
      vertex 3.09017 9.51056 0
      vertex 3.09017 9.51056 5
      vertex 5 8.66025 0
    endloop
  endfacet
  facet normal 0.406737 0.913545 0
    outer loop
      vertex 5 8.66025 0
      vertex 3.09017 9.51056 5
      vertex 5 8.66025 5
    endloop
  endfacet
  facet normal 0.587785 0.809017 0
    outer loop
      vertex 5 8.66025 0
      vertex 5 8.66025 5
      vertex 6.69131 7.43145 0
    endloop
  endfacet
  facet normal 0.587785 0.809017 0
    outer loop
      vertex 6.69131 7.43145 0
      vertex 5 8.66025 5
      vertex 6.69131 7.43145 5
    endloop
  endfacet
  facet normal 0.743145 0.669131 0
    outer loop
      vertex 8.09017 5.87785 0
      vertex 6.69131 7.43145 0
      vertex 6.69131 7.43145 5
    endloop
  endfacet
  facet normal 0.743145 0.669131 0
    outer loop
      vertex 8.09017 5.87785 5
      vertex 8.09017 5.87785 0
      vertex 6.69131 7.43145 5
    endloop
  endfacet
  facet normal 0.866025 0.5 0
    outer loop
      vertex 9.13546 4.06737 0
      vertex 8.09017 5.87785 0
      vertex 8.09017 5.87785 5
    endloop
  endfacet
  facet normal 0.866025 0.5 0
    outer loop
      vertex 9.13546 4.06737 5
      vertex 9.13546 4.06737 0
      vertex 8.09017 5.87785 5
    endloop
  endfacet
  facet normal 0.951057 0.309017 0
    outer loop
      vertex 9.78148 2.07912 0
      vertex 9.13546 4.06737 0
      vertex 9.13546 4.06737 5
    endloop
  endfacet
  facet normal 0.951057 0.309017 0
    outer loop
      vertex 9.78148 2.07912 5
      vertex 9.78148 2.07912 0
      vertex 9.13546 4.06737 5
    endloop
  endfacet
  facet normal 0.994522 0.104528 0
    outer loop
      vertex 10 0 0
      vertex 9.78148 2.07912 0
      vertex 9.78148 2.07912 5
    endloop
  endfacet
  facet normal 0.994522 0.104528 0
    outer loop
      vertex 10 0 5
      vertex 10 0 0
      vertex 9.78148 2.07912 5
    endloop
  endfacet
  facet normal 0.994522 -0.104528 0
    outer loop
      vertex 9.78148 -2.07912 5
      vertex 9.78148 -2.07912 0
      vertex 10 0 0
    endloop
  endfacet
  facet normal 0.994522 -0.104528 0
    outer loop
      vertex 10 0 5
      vertex 9.78148 -2.07912 5
      vertex 10 0 0
    endloop
  endfacet
  facet normal 0.951057 -0.309017 0
    outer loop
      vertex 9.13546 -4.06737 5
      vertex 9.13546 -4.06737 0
      vertex 9.78148 -2.07912 0
    endloop
  endfacet
  facet normal 0.951057 -0.309017 0
    outer loop
      vertex 9.78148 -2.07912 5
      vertex 9.13546 -4.06737 5
      vertex 9.78148 -2.07912 0
    endloop
  endfacet
  facet normal 0.866025 -0.5 0
    outer loop
      vertex 8.09017 -5.87785 5
      vertex 8.09017 -5.87785 0
      vertex 9.13546 -4.06737 0
    endloop
  endfacet
  facet normal 0.866025 -0.5 0
    outer loop
      vertex 9.13546 -4.06737 5
      vertex 8.09017 -5.87785 5
      vertex 9.13546 -4.06737 0
    endloop
  endfacet
  facet normal 0.743145 -0.669131 0
    outer loop
      vertex 6.69131 -7.43145 5
      vertex 6.69131 -7.43145 0
      vertex 8.09017 -5.87785 0
    endloop
  endfacet
  facet normal 0.743145 -0.669131 0
    outer loop
      vertex 8.09017 -5.87785 5
      vertex 6.69131 -7.43145 5
      vertex 8.09017 -5.87785 0
    endloop
  endfacet
  facet normal 0.587785 -0.809017 0
    outer loop
      vertex 5 -8.66025 5
      vertex 5 -8.66025 0
      vertex 6.69131 -7.43145 0
    endloop
  endfacet
  facet normal 0.587785 -0.809017 0
    outer loop
      vertex 6.69131 -7.43145 5
      vertex 5 -8.66025 5
      vertex 6.69131 -7.43145 0
    endloop
  endfacet
  facet normal 0.406737 -0.913545 0
    outer loop
      vertex 3.09017 -9.51056 5
      vertex 3.09017 -9.51056 0
      vertex 5 -8.66025 0
    endloop
  endfacet
  facet normal 0.406737 -0.913545 0
    outer loop
      vertex 5 -8.66025 5
      vertex 3.09017 -9.51056 5
      vertex 5 -8.66025 0
    endloop
  endfacet
  facet normal 0.207912 -0.978148 0
    outer loop
      vertex 1.04529 -9.94522 5
      vertex 1.04529 -9.94522 0
      vertex 3.09017 -9.51056 0
    endloop
  endfacet
  facet normal 0.207912 -0.978148 0
    outer loop
      vertex 3.09017 -9.51056 5
      vertex 1.04529 -9.94522 5
      vertex 3.09017 -9.51056 0
    endloop
  endfacet
  facet normal 0 -1 0
    outer loop
      vertex -1.04529 -9.94522 5
      vertex -1.04529 -9.94522 0
      vertex 1.04529 -9.94522 0
    endloop
  endfacet
  facet normal 0 -1 0
    outer loop
      vertex 1.04529 -9.94522 5
      vertex -1.04529 -9.94522 5
      vertex 1.04529 -9.94522 0
    endloop
  endfacet
  facet normal -0.207912 -0.978148 0
    outer loop
      vertex -3.09017 -9.51056 5
      vertex -3.09017 -9.51056 0
      vertex -1.04529 -9.94522 0
    endloop
  endfacet
  facet normal -0.207912 -0.978148 0
    outer loop
      vertex -1.04529 -9.94522 5
      vertex -3.09017 -9.51056 5
      vertex -1.04529 -9.94522 0
    endloop
  endfacet
  facet normal -0.406737 -0.913545 0
    outer loop
      vertex -5 -8.66025 5
      vertex -5 -8.66025 0
      vertex -3.09017 -9.51056 0
    endloop
  endfacet
  facet normal -0.406737 -0.913545 0
    outer loop
      vertex -3.09017 -9.51056 5
      vertex -5 -8.66025 5
      vertex -3.09017 -9.51056 0
    endloop
  endfacet
  facet normal -0.587785 -0.809017 0
    outer loop
      vertex -6.69131 -7.43145 5
      vertex -6.69131 -7.43145 0
      vertex -5 -8.66025 0
    endloop
  endfacet
  facet normal -0.587785 -0.809017 0
    outer loop
      vertex -5 -8.66025 5
      vertex -6.69131 -7.43145 5
      vertex -5 -8.66025 0
    endloop
  endfacet
  facet normal -0.743145 -0.669131 0
    outer loop
      vertex -8.09017 -5.87785 0
      vertex -6.69131 -7.43145 0
      vertex -8.09017 -5.87785 5
    endloop
  endfacet
  facet normal -0.743145 -0.669131 0
    outer loop
      vertex -8.09017 -5.87785 5
      vertex -6.69131 -7.43145 0
      vertex -6.69131 -7.43145 5
    endloop
  endfacet
  facet normal -0.866025 -0.5 0
    outer loop
      vertex -9.13546 -4.06737 0
      vertex -8.09017 -5.87785 0
      vertex -9.13546 -4.06737 5
    endloop
  endfacet
  facet normal -0.866025 -0.5 0
    outer loop
      vertex -9.13546 -4.06737 5
      vertex -8.09017 -5.87785 0
      vertex -8.09017 -5.87785 5
    endloop
  endfacet
  facet normal -0.951057 -0.309017 0
    outer loop
      vertex -9.78148 -2.07912 0
      vertex -9.13546 -4.06737 0
      vertex -9.78148 -2.07912 5
    endloop
  endfacet
  facet normal -0.951057 -0.309017 0
    outer loop
      vertex -9.78148 -2.07912 5
      vertex -9.13546 -4.06737 0
      vertex -9.13546 -4.06737 5
    endloop
  endfacet
  facet normal -0.994522 -0.104528 0
    outer loop
      vertex -10 0 0
      vertex -9.78148 -2.07912 0
      vertex -10 0 5
    endloop
  endfacet
  facet normal -0.994522 -0.104528 0
    outer loop
      vertex -10 0 5
      vertex -9.78148 -2.07912 0
      vertex -9.78148 -2.07912 5
    endloop
  endfacet
  facet normal 0 0 -1
    outer loop
      vertex -10 0 0
      vertex -9.78148 2.07912 0
      vertex -9.78148 -2.07912 0
    endloop
  endfacet
  facet normal 0 0 -1
    outer loop
      vertex -9.78148 -2.07912 0
      vertex -9.78148 2.07912 0
      vertex -9.13546 4.06737 0
    endloop
  endfacet
  facet normal 0 0 -1
    outer loop
      vertex -9.78148 -2.07912 0
      vertex -9.13546 4.06737 0
      vertex -8.09017 5.87785 0
    endloop
  endfacet
  facet normal 0 0 -1
    outer loop
      vertex -9.78148 -2.07912 0
      vertex -8.09017 5.87785 0
      vertex -6.69131 7.43145 0
    endloop
  endfacet
  facet normal 0 0 -1
    outer loop
      vertex -9.78148 -2.07912 0
      vertex -6.69131 7.43145 0
      vertex -5 8.66025 0
    endloop
  endfacet
  facet normal 0 0 -1
    outer loop
      vertex -9.78148 -2.07912 0
      vertex -5 8.66025 0
      vertex -3.09017 9.51056 0
    endloop
  endfacet
  facet normal 0 0 -1
    outer loop
      vertex -9.78148 -2.07912 0
      vertex -3.09017 9.51056 0
      vertex -1.04529 9.94522 0
    endloop
  endfacet
  facet normal 0 0 -1
    outer loop
      vertex -9.78148 -2.07912 0
      vertex -1.04529 9.94522 0
      vertex 1.04529 9.94522 0
    endloop
  endfacet
  facet normal 0 0 -1
    outer loop
      vertex -9.78148 -2.07912 0
      vertex 1.04529 9.94522 0
      vertex 3.09017 9.51056 0
    endloop
  endfacet
  facet normal 0 0 -1
    outer loop
      vertex -9.78148 -2.07912 0
      vertex 3.09017 9.51056 0
      vertex 5 8.66025 0
    endloop
  endfacet
  facet normal 0 0 -1
    outer loop
      vertex -9.78148 -2.07912 0
      vertex 5 8.66025 0
      vertex 6.69131 7.43145 0
    endloop
  endfacet
  facet normal 0 0 -1
    outer loop
      vertex -9.78148 -2.07912 0
      vertex 6.69131 7.43145 0
      vertex 8.09017 5.87785 0
    endloop
  endfacet
  facet normal 0 0 -1
    outer loop
      vertex -9.78148 -2.07912 0
      vertex 8.09017 5.87785 0
      vertex 9.13546 4.06737 0
    endloop
  endfacet
  facet normal 0 0 -1
    outer loop
      vertex -9.78148 -2.07912 0
      vertex 9.13546 4.06737 0
      vertex 9.78148 2.07912 0
    endloop
  endfacet
  facet normal 0 0 -1
    outer loop
      vertex -9.78148 -2.07912 0
      vertex 9.78148 2.07912 0
      vertex 10 0 0
    endloop
  endfacet
  facet normal 0 0 -1
    outer loop
      vertex -9.78148 -2.07912 0
      vertex 10 0 0
      vertex 9.78148 -2.07912 0
    endloop
  endfacet
  facet normal 0 0 -1
    outer loop
      vertex -9.78148 -2.07912 0
      vertex 9.78148 -2.07912 0
      vertex 9.13546 -4.06737 0
    endloop
  endfacet
  facet normal 0 0 -1
    outer loop
      vertex -9.78148 -2.07912 0
      vertex 9.13546 -4.06737 0
      vertex 8.09017 -5.87785 0
    endloop
  endfacet
  facet normal 0 0 -1
    outer loop
      vertex -9.78148 -2.07912 0
      vertex 8.09017 -5.87785 0
      vertex 6.69131 -7.43145 0
    endloop
  endfacet
  facet normal 0 0 -1
    outer loop
      vertex -9.78148 -2.07912 0
      vertex 6.69131 -7.43145 0
      vertex 5 -8.66025 0
    endloop
  endfacet
  facet normal 0 0 -1
    outer loop
      vertex -9.78148 -2.07912 0
      vertex 5 -8.66025 0
      vertex 3.09017 -9.51056 0
    endloop
  endfacet
  facet normal 0 0 -1
    outer loop
      vertex -9.78148 -2.07912 0
      vertex 3.09017 -9.51056 0
      vertex 1.04529 -9.94522 0
    endloop
  endfacet
  facet normal 0 0 -1
    outer loop
      vertex -9.78148 -2.07912 0
      vertex 1.04529 -9.94522 0
      vertex -1.04529 -9.94522 0
    endloop
  endfacet
  facet normal 0 0 -1
    outer loop
      vertex -9.78148 -2.07912 0
      vertex -1.04529 -9.94522 0
      vertex -3.09017 -9.51056 0
    endloop
  endfacet
  facet normal 0 0 -1
    outer loop
      vertex -9.78148 -2.07912 0
      vertex -3.09017 -9.51056 0
      vertex -5 -8.66025 0
    endloop
  endfacet
  facet normal 0 0 -1
    outer loop
      vertex -9.78148 -2.07912 0
      vertex -5 -8.66025 0
      vertex -6.69131 -7.43145 0
    endloop
  endfacet
  facet normal 0 0 -1
    outer loop
      vertex -9.78148 -2.07912 0
      vertex -6.69131 -7.43145 0
      vertex -8.09017 -5.87785 0
    endloop
  endfacet
  facet normal 0 0 -1
    outer loop
      vertex -9.78148 -2.07912 0
      vertex -8.09017 -5.87785 0
      vertex -9.13546 -4.06737 0
    endloop
  endfacet
endsolid OpenSCAD_Model
